<?xml version="1.0" standalone="no"?>
<!DOCTYPE svg PUBLIC "-//W3C//DTD SVG 20010904//EN"
 "http://www.w3.org/TR/2001/REC-SVG-20010904/DTD/svg10.dtd">
<svg version="1.0" xmlns="http://www.w3.org/2000/svg"
 width="173.000000pt" height="40.000000pt" viewBox="0 0 173.000000 40.000000"
 preserveAspectRatio="xMidYMid meet">

<g transform="translate(0.000000,40.000000) scale(0.100000,-0.100000)"
fill="#000000" stroke="none">
<path d="M1569 304 c-11 -26 -18 -49 -16 -51 2 -2 14 19 25 47 11 27 19 50 16
50 -3 0 -14 -21 -25 -46z"/>
<path d="M880 304 c-6 -14 -10 -60 -9 -102 1 -54 3 -69 9 -52 5 14 8 18 9 9 1
-24 24 -40 41 -29 8 5 21 5 30 0 11 -6 22 -5 30 3 10 9 14 9 17 0 6 -18 28
-16 43 2 10 12 10 15 -4 15 -9 0 -16 5 -16 10 0 6 -11 8 -25 4 -19 -5 -25 -2
-25 11 0 13 6 16 25 13 17 -4 25 -1 25 8 0 22 -25 17 -58 -11 -33 -28 -52 -31
-70 -13 -18 18 -15 28 8 28 11 0 20 7 20 15 0 17 -16 20 -25 5 -18 -30 -33 27
-18 67 6 15 9 13 14 -12 6 -27 7 -26 8 13 1 47 -14 56 -29 16z"/>
<path d="M206 305 c-9 -26 -7 -32 5 -12 6 10 9 21 6 23 -2 3 -7 -2 -11 -11z"/>
<path d="M1361 289 c-6 -18 -11 -47 -11 -65 0 -19 -4 -34 -10 -34 -5 0 -10 5
-10 10 0 20 -28 10 -58 -21 l-30 -31 -21 23 c-17 18 -23 20 -36 9 -13 -11 -12
-15 11 -36 18 -18 30 -22 42 -15 10 6 23 5 34 -3 16 -9 23 -6 44 18 l25 29 15
-22 c18 -25 42 -27 70 -6 18 14 18 14 -7 15 -36 0 -54 22 -40 49 6 11 11 26
10 33 0 7 -5 2 -11 -12 -13 -33 -22 -10 -14 36 8 39 23 45 29 12 3 -17 5 -14
6 10 1 42 -23 43 -38 1z m-51 -114 c10 -12 10 -15 -4 -15 -9 0 -16 7 -16 15 0
8 2 15 4 15 2 0 9 -7 16 -15z"/>
<path d="M620 289 c-7 -11 -14 -45 -17 -75 -6 -57 -23 -70 -45 -35 -11 18 -12
18 -28 -2 l-17 -20 -15 21 -15 22 -11 -24 c-9 -20 -8 -27 4 -37 13 -10 20 -10
37 0 15 10 22 11 25 2 5 -14 39 -15 47 0 5 7 14 4 26 -7 19 -17 21 -16 49 5
22 16 30 18 30 7 0 -18 25 -27 38 -14 8 8 16 7 27 -2 14 -11 19 -10 37 8 l21
21 -21 -6 c-13 -3 -22 -1 -22 6 0 7 -9 9 -26 5 -20 -5 -25 -3 -22 7 3 8 15 14
27 13 11 0 21 5 21 13 0 17 -21 17 -46 -2 -25 -19 -44 -19 -44 1 0 14 -3 14
-16 3 -8 -7 -13 -21 -11 -31 3 -10 2 -18 -3 -18 -13 0 -32 29 -26 39 4 5 3 12
-2 15 -11 7 -2 75 11 83 7 4 8 -9 4 -38 -4 -29 -3 -37 3 -24 12 27 12 85 0 85
-5 0 -14 -9 -20 -21z"/>
<path d="M161 199 c-17 -40 -30 -74 -28 -76 2 -2 18 29 36 68 17 40 30 74 28
76 -2 2 -18 -29 -36 -68z"/>
<path d="M1536 225 c-9 -26 -7 -32 5 -12 6 10 9 21 6 23 -2 3 -7 -2 -11 -11z"/>
<path d="M282 190 c-34 -32 -28 -79 9 -60 12 7 20 6 24 -1 4 -6 14 -7 24 -3 9
4 27 6 40 5 13 0 33 6 43 16 25 22 24 -1 -2 -34 -33 -42 -21 -128 13 -94 12
12 27 181 16 181 -4 0 -9 -9 -12 -20 -7 -26 -32 -26 -50 0 -14 21 -15 21 -21
-5 -6 -25 -20 -33 -30 -16 -3 5 -15 7 -26 4 -14 -4 -20 0 -20 11 0 11 7 16 18
14 21 -3 30 15 10 20 -8 1 -24 -7 -36 -18z m158 -105 c0 -19 -4 -35 -10 -35
-11 0 -13 30 -4 54 10 25 14 19 14 -19z"/>
<path d="M1075 180 c-6 -10 11 -50 22 -50 3 0 12 8 19 18 13 16 13 16 14 0 0
-20 11 -23 27 -7 11 11 6 49 -6 49 -4 0 -12 -5 -19 -12 -9 -9 -15 -9 -24 0
-15 15 -25 15 -33 2z"/>
<path d="M1507 155 c-9 -19 -13 -35 -9 -35 8 0 34 61 29 67 -2 1 -11 -13 -20
-32z"/>
<path d="M85 151 c-6 -11 9 -23 19 -14 9 9 7 23 -3 23 -6 0 -12 -4 -16 -9z"/>
<path d="M1593 123 c15 -2 37 -2 50 0 12 2 0 4 -28 4 -27 0 -38 -2 -22 -4z"/>
</g>
</svg>
